<?xml version="1.0" encoding="UTF-8"?>
<svg width="512" height="512" viewBox="0 0 24 24" fill="none" xmlns="http://www.w3.org/2000/svg">
  <path d="M12 3C7.03 3 3 7.03 3 12C3 16.97 7.03 21 12 21C16.97 21 21 16.97 21 12C21 7.03 16.97 3 12 3ZM12 19C8.13 19 5 15.87 5 12C5 8.13 8.13 5 12 5C15.87 5 19 8.13 19 12C19 15.87 15.87 19 12 19Z" fill="url(#gradient)"/>
  <path d="M15 12.5C15 13.8807 13.8807 15 12.5 15C11.1193 15 10 13.8807 10 12.5C10 11.1193 11.1193 10 12.5 10C13.8807 10 15 11.1193 15 12.5Z" fill="url(#gradient)"/>
  <defs>
    <linearGradient id="gradient" x1="3" y1="3" x2="21" y2="21" gradientUnits="userSpaceOnUse">
      <stop offset="0%" stop-color="#9333EA"/>
      <stop offset="100%" stop-color="#4F46E5"/>
    </linearGradient>
  </defs>
</svg>